# xmcd CD database file
#
# Track frame offsets:
#	150
#	20348
#	38206
#	60839
#	74256
#	87443
#	109856
#	125243
#	135205
#	149086
#	166112
#	179317
#	190940
#	204324
#
# Disc length: 2948 seconds
#
# Revision: 1
# Processed by: cddbd v1.5.2PL0 Copyright (c) Steve Scherf et al.
# Submitted via: CDex 1.51
#
DISCID=c20b820e
DTITLE=Toshiko Ushijima - E,brace Me
DYEAR=2005
DGENRE=Jazz
TTITLE0=Get Happy
TTITLE1=I Wish You Love
TTITLE2=You Belong to Me
TTITLE3=Cole Porter's Medley
TTITLE4=You Don't Know What Love Is
TTITLE5=Skylark
TTITLE6=Only Trust Your Heart
TTITLE7=Thou Swell
TTITLE8=Amapala
TTITLE9=Ther End of a Love Affair
TTITLE10=Baubles,bangles and beads
TTITLE11=On a Clear Day(You Can See Forever)
TTITLE12=Take Five
TTITLE13=When The World Turns Blue
EXTD=YEAR: 2005
EXTT0=
EXTT1=
EXTT2=
EXTT3=
EXTT4=
EXTT5=
EXTT6=
EXTT7=
EXTT8=
EXTT9=
EXTT10=
EXTT11=
EXTT12=
EXTT13=
PLAYORDER=
